<svg xmlns="http://www.w3.org/2000/svg" width="640" height="200" style="background:#1cc6d9" viewBox="0 0 640 200">
    <g fill="none" fill-rule="evenodd">
        <path fill="#1CC6D9" d="M-540-630h1720v890H-540z"/>
        <path fill="#FFF" fill-rule="nonzero" d="M476 60v80c0 22.091-17.909 40-40 40-9.11 0-17.51-3.046-24.234-8.174l9.668-12.75A23.895 23.895 0 0 0 436 164c13.255 0 24-10.745 24-24v-7.998A39.823 39.823 0 0 1 436 140c-22.091 0-40-17.909-40-40s17.909-40 40-40a39.823 39.823 0 0 1 24 7.998V60h16zm56 0c22.091 0 40 17.909 40 40 0 2.74-.275 5.415-.8 8h-61.834c3.294 9.322 12.184 16 22.634 16 5.454 0 10.483-1.82 14.513-4.884l9.652 12.762A39.824 39.824 0 0 1 532 140c-22.091 0-40-17.909-40-40s17.909-40 40-40zm-208 0v80h-16v-7.998A39.823 39.823 0 0 1 284 140c-22.091 0-40-17.909-40-40s17.909-40 40-40a39.823 39.823 0 0 1 24 7.998V60h16zm-152 0v44c0 11.046 8.954 20 20 20 10.935 0 19.82-8.776 19.997-19.67L212 104V60h16v80h-16v-6.063A35.832 35.832 0 0 1 192 140c-19.882 0-36-16.118-36-36V60h16zm-88 0v6.063A35.832 35.832 0 0 1 104 60c19.882 0 36 16.118 36 36v44h-16V96c0-11.046-8.954-20-20-20-10.935 0-19.82 8.776-19.997 19.67L84 96v44H68V60h16zm352 16c-13.255 0-24 10.745-24 24s10.745 24 24 24 24-10.745 24-24-10.745-24-24-24zm-152 0c-13.255 0-24 10.745-24 24s10.745 24 24 24 24-10.745 24-24-10.745-24-24-24zm73.44 4.372c6.018.963 10.85 3.726 15.188 8.117 4.338 4.391 8.163 10.42 7.23 15.59-.932 5.171-6.633 9.495-12.855 12.5-6.214 3.013-12.95 4.727-17.194 2.195-4.236-2.533-5.99-9.302-7.706-16.303-1.717-6.99-3.396-14.213-.644-18.238 2.761-4.015 9.964-4.834 15.981-3.861zM532 76c-10.45 0-19.34 6.678-22.635 16h45.269c-3.295-9.322-12.185-16-22.635-16z"/>
        <path d="M0 0h640v200H0z"/>
        <path fill="#222" fill-rule="nonzero" d="M640 0H0v200h640V0zm10-10v220H-10V-10h660z" opacity=".1"/>
    </g>
</svg>
