<?xml version="1.0" standalone="no"?>
<!DOCTYPE svg PUBLIC "-//W3C//DTD SVG 20010904//EN"
 "http://www.w3.org/TR/2001/REC-SVG-20010904/DTD/svg10.dtd">
<svg version="1.0" xmlns="http://www.w3.org/2000/svg"
 width="700.000000pt" height="700.000000pt" viewBox="0 0 700.000000 700.000000"
 preserveAspectRatio="xMidYMid meet">
<metadata>
Created by potrace 1.11, written by Peter Selinger 2001-2013
</metadata>
<g transform="translate(0.000000,700.000000) scale(0.100000,-0.100000)"
fill="#000000" stroke="none">
<path d="M1988 6995 c-1 -1 -45 -6 -96 -9 -51 -4 -101 -9 -110 -11 -9 -1 -48
-6 -87 -10 -82 -8 -295 -48 -410 -76 -543 -137 -924 -400 -1110 -769 -45 -90
-107 -264 -121 -340 -4 -25 -8 -47 -9 -50 -9 -31 -23 -125 -32 -215 -15 -134
-6 -653 12 -725 2 -8 6 -46 10 -83 3 -37 8 -76 9 -85 2 -9 7 -39 11 -67 18
-128 17 -116 45 -275 28 -160 63 -334 105 -526 19 -88 72 -312 110 -469 26
-104 48 -197 50 -206 2 -9 8 -33 14 -55 8 -31 69 -276 86 -344 59 -247 186
-693 271 -949 159 -482 366 -900 567 -1146 202 -247 423 -404 696 -495 107
-36 99 -34 246 -62 169 -31 562 -31 755 2 30 5 73 11 95 14 61 7 236 45 365
78 128 32 129 32 290 85 63 20 117 38 120 38 21 3 145 50 310 115 684 272
1356 650 1819 1022 414 334 729 714 865 1048 15 36 31 74 36 85 14 33 59 187
65 224 3 19 8 37 10 41 18 29 26 370 12 504 -29 276 -153 644 -325 966 -85
161 -251 430 -304 495 -5 5 -39 53 -78 105 -105 144 -272 348 -384 470 -152
164 -401 405 -571 553 -16 14 -43 37 -60 52 -58 50 -380 289 -433 320 -9 6
-41 26 -72 46 -220 143 -422 245 -785 399 -108 45 -382 129 -569 174 -112 27
-394 80 -491 91 -33 4 -71 9 -85 11 -14 1 -59 6 -100 10 -41 4 -88 9 -105 11
-35 5 -632 13 -637 8z"/>
</g>
</svg>
