<svg xmlns="http://www.w3.org/2000/svg" width="530" height="720" viewBox="0 0 530 720">
    <g fill="#000" fill-opacity=".05" fill-rule="evenodd">
        <path d="M480.038 4.741c-78.87 16.722-149.727 79.17-159.492 179.5-10.015 99.987 41.063 238.195-31.297 334.428C230.364 596.982 89.735 647.724-.001 720h530V.029c-16.964-.26-33.635 1.24-49.96 4.712z"/>
        <path d="M451.393 441.701c-29.599 6-56.19 28.405-59.855 64.4-3.758 35.873 15.41 85.46-11.745 119.986-27.156 34.526-100.635 54.115-128.073 91.458A66.004 66.004 0 0 0 250 720h280V455.914c-27.454-12.845-54.07-19.202-78.607-14.213z"/>
    </g>
</svg>
