<svg xmlns="http://www.w3.org/2000/svg" width="220" height="150" viewBox="0 0 220 150">
    <path fill="#FFF" fill-rule="nonzero" d="M170 0c27.614 0 50 22.386 50 50a50.23 50.23 0 0 1-1 10h-77.293c4.118 11.652 15.23 20 28.293 20a29.868 29.868 0 0 0 18.141-6.105l12.066 15.953A49.78 49.78 0 0 1 170 100c-27.614 0-50-22.386-50-50s22.386-50 50-50zm0 20c-13.063 0-24.175 8.348-28.294 20h56.586c-4.118-11.652-15.23-20-28.293-20zM100 0v100c0 27.614-22.386 50-50 50a49.78 49.78 0 0 1-30.293-10.218l12.085-15.938A29.869 29.869 0 0 0 50 130c16.569 0 30-13.431 30-30l.001-9.997A49.779 49.779 0 0 1 50 100C22.386 100 0 77.614 0 50S22.386 0 50 0a49.779 49.779 0 0 1 30.001 9.997L80 0h20zM50 20c-16.569 0-30 13.431-30 30 0 16.569 13.431 30 30 30 16.569 0 30-13.431 30-30 0-16.569-13.431-30-30-30z"/>
</svg>
