<svg xmlns="http://www.w3.org/2000/svg" width="320" height="150" viewBox="0 0 320 150">
    <g fill="none" fill-rule="evenodd">
        <path fill="#FFF" fill-rule="nonzero" d="M320 0v100h-20l.001-9.997A49.779 49.779 0 0 1 270 100c-27.614 0-50-22.386-50-50s22.386-50 50-50a49.779 49.779 0 0 1 30.001 9.997L300 0h20zm-50 20c-16.569 0-30 13.431-30 30 0 16.569 13.431 30 30 30 16.569 0 30-13.431 30-30 0-16.569-13.431-30-30-30zM130 0v55l.003.413C130.224 69.03 141.331 80 155 80s24.775-10.97 24.997-24.586l.004-.412L180 0h20v100h-20l.001-7.579A44.79 44.79 0 0 1 155 100c-24.604 0-44.597-19.746-44.994-44.256L110 55V0h20zM20 0l-.001 7.579A44.79 44.79 0 0 1 45 0c24.604 0 44.597 19.746 44.994 44.256L90 45v55H70V45l-.003-.413C69.776 30.97 58.669 20 45 20S20.225 30.97 20.003 44.586l-.004.412L20 100H0V0h20z"/>
        <path stroke="#222" stroke-width="4" d="M-2-2h324v154H-2z" opacity=".25"/>
    </g>
</svg>
